{
 "cells": [
  {
   "cell_type": "code",
   "execution_count": 1,
   "metadata": {},
   "outputs": [],
   "source": [
    "import os\n",
    "os.chdir('../..')"
   ]
  },
  {
   "cell_type": "code",
   "execution_count": 2,
   "metadata": {},
   "outputs": [],
   "source": [
    "import sys\n",
    "sys.path.append('./python')\n",
    "\n",
    "from pathlib import Path\n",
    "import time\n",
    "import numpy as np\n",
    "import scipy.optimize\n",
    "import pickle\n",
    "from tqdm import tqdm\n",
    "\n",
    "from py_diff_pd.common.common import ndarray, create_folder, rpy_to_rotation, rpy_to_rotation_gradient\n",
    "from py_diff_pd.common.common import print_info, print_ok, print_error\n",
    "from py_diff_pd.common.grad_check import check_gradients\n",
    "from py_diff_pd.core.py_diff_pd_core import StdRealVector\n",
    "from experiment.env.SorosimRountingEnv import CRoutingTendonEnv3d \n",
    "from py_diff_pd.common.renderer import PbrtRenderer\n",
    "from py_diff_pd.core.py_diff_pd_core import HexMesh3d\n",
    "from py_diff_pd.common.project_path import root_path\n"
   ]
  },
  {
   "cell_type": "code",
   "execution_count": 3,
   "metadata": {},
   "outputs": [
    {
     "name": "stdout",
     "output_type": "stream",
     "text": [
      "\u001b[96m Detected 128 CPUs. Using 96 of them in this run \u001b[0m\n",
      "Marker set to [x:0.01090909090909091,y:0.00909090909090909,z:0.012727272727272728]\n",
      "Marker set to [x:0.01090909090909091,y:0.00909090909090909,z:0.025454545454545455]\n",
      "Marker set to [x:0.01090909090909091,y:0.00909090909090909,z:0.04]\n",
      "Marker set to [x:0.01090909090909091,y:0.00909090909090909,z:0.05272727272727273]\n",
      "Marker set to [x:0.01090909090909091,y:0.00909090909090909,z:0.06545454545454546]\n",
      "Marker set to [x:0.01090909090909091,y:0.00909090909090909,z:0.08]\n",
      "Marker set to [x:0.01090909090909091,y:0.00909090909090909,z:0.09272727272727273]\n",
      "Marker set to [x:0.01090909090909091,y:0.00909090909090909,z:0.10545454545454545]\n",
      "Marker set to [x:0.01090909090909091,y:0.00909090909090909,z:0.12]\n"
     ]
    }
   ],
   "source": [
    "seed = 42\n",
    "np.random.seed(seed)\n",
    "folder = Path('custom_routing_tendon')\n",
    "youngs_modulus = 5e5\n",
    "poissons_ratio = 0.45\n",
    "refinement = 11\n",
    "muscle_cnt = 8\n",
    "act_max = 2\n",
    "env = CRoutingTendonEnv3d(seed, folder, {\n",
    "    'muscle_cnt': muscle_cnt,\n",
    "    'refinement': refinement,\n",
    "    'youngs_modulus': youngs_modulus,\n",
    "    'poissons_ratio': poissons_ratio })\n",
    "deformable = env.deformable()\n",
    "mesh = env.mesh\n",
    "# Camera options\n",
    "env._camera_pos = (0.3, -1, .25)\n",
    "env._scale = 2\n",
    "\n",
    "# Optimization parameters.\n",
    "import multiprocessing\n",
    "cpu_cnt = multiprocessing.cpu_count()\n",
    "thread_ct = 96\n",
    "print_info('Detected {:d} CPUs. Using {} of them in this run'.format(cpu_cnt, thread_ct)) \n",
    "pd_opt = { 'max_pd_iter': 500, 'max_ls_iter': 10, 'abs_tol': 1e-9, 'rel_tol': 1e-4, 'verbose': 0, 'thread_ct': thread_ct,\n",
    "    'use_bfgs': 1, 'bfgs_history_size': 10 }\n",
    "methods = ('pd_eigen',)\n",
    "opts = (pd_opt,)\n",
    "\n",
    "dt = 1e-2\n",
    "frame_num = 10\n",
    "\n",
    "# Initial state.\n",
    "dofs = deformable.dofs()\n",
    "act_dofs = deformable.act_dofs()\n",
    "q0 = env.default_init_position()\n",
    "v0 = np.zeros(dofs)\n",
    "f0 = [np.zeros(dofs) for _ in range(frame_num)]\n",
    "act_maps = env.act_maps()\n",
    "u_dofs = len(act_maps)\n",
    "cell_nums = env._cell_nums\n",
    "node_nums = env._node_nums\n",
    "\n",
    "assert cell_nums[0]*cell_nums[1]*cell_nums[2] == mesh.NumOfElements()\n",
    "assert node_nums[0]*node_nums[1]*node_nums[2] == mesh.NumOfVertices()\n",
    "\n",
    "def variable_to_act(x):\n",
    "    act = np.ones(act_dofs)\n",
    "    for i, a in enumerate(act_maps):\n",
    "        act[a] = 1 - x[i]\n",
    "    return act\n",
    "\n",
    "# Get Marker\n",
    "segNumber = 10\n",
    "\n",
    "zcorrdinate = np.linspace(0,0.12,segNumber) / env._dx\n",
    "xcoordinate = np.ones_like(zcorrdinate) * 0.01 /env._dx\n",
    "ycoordinate = np.ones_like(zcorrdinate) * 0.02 /env._dx\n",
    "\n",
    "py_verticeIdxs = []\n",
    "for m in range(segNumber):\n",
    "    if m==0:\n",
    "        continue\n",
    "    idx = node_nums[2]*node_nums[1]*xcoordinate[m] + node_nums[2]*ycoordinate[m] + zcorrdinate[m]\n",
    "    idx = int(idx)\n",
    "    py_verticeIdxs.append(idx)\n",
    "py_verticeIdxs = np.array(py_verticeIdxs)\n",
    "\n",
    "env.set_marker(py_verticeIdxs,verbose=True)\n"
   ]
  },
  {
   "cell_type": "code",
   "execution_count": 5,
   "metadata": {},
   "outputs": [],
   "source": [
    "## Check Actuated element\n",
    "Tendoncoordinate =(\n",
    "    [(1,3),(1,7)],\n",
    "    [(3,9),(7,9)],\n",
    "    [(9,7),(9,3)],\n",
    "    [(7,1),(3,1)]\n",
    ")\n",
    "tendon = Tendoncoordinate[0][0]\n",
    "\n",
    "idx = cell_nums[2]*cell_nums[1]*tendon[0] + cell_nums[2]*tendon[1]\n",
    "vertices = mesh.py_element(idx)\n",
    "out = np.zeros(8*3).reshape(8,3)\n",
    "assert len(vertices) == 8\n",
    "for idx,vertice in enumerate(vertices):\n",
    "    out[idx] = mesh.py_vertex(vertice)"
   ]
  },
  {
   "cell_type": "code",
   "execution_count": 6,
   "metadata": {},
   "outputs": [],
   "source": [
    "import json\n",
    "\n",
    "# Opening JSON file\n",
    "trainInter,valInter = \\\n",
    "    open('python/experiment/preprocess/trainInterpolate.json'),open('python/experiment/preprocess/valInterpolate.json')\n",
    "\n",
    "trainInterpolate, valInterpolate = json.load(trainInter), json.load(valInter)\n",
    "trainInterpolate = trainInterpolate['data'], valInterpolate['data']\n",
    "trainInter.close(), valInter.close()\n",
    "\n",
    "\n",
    "# Set method\n",
    "method,opt = methods[0], opts[0]"
   ]
  },
  {
   "cell_type": "code",
   "execution_count": 7,
   "metadata": {},
   "outputs": [
    {
     "data": {
      "text/plain": [
       "([2.6604533581129344,\n",
       "  6.178678304136006,\n",
       "  8.704983304237876,\n",
       "  1.4148667088767541],\n",
       " [[0.010514188130185818, 0.02040524166453906, 0.011329625683338534],\n",
       "  [0.012049907642708774, 0.0216155720766686, 0.022508431265188377],\n",
       "  [0.014586715022556939, 0.02361487930465369, 0.033387604362907754],\n",
       "  [0.01809084026203724, 0.026376548548724274, 0.04382232130477341],\n",
       "  [0.022515636407488646, 0.029863816437581903, 0.053673675024288686],\n",
       "  [0.027802200524041462, 0.034030260422802126, 0.06281052419257777],\n",
       "  [0.033880157812133015, 0.038820416756308776, 0.0711112389731956],\n",
       "  [0.04066859843761213, 0.04417051882439735, 0.07846532015984603],\n",
       "  [0.04807715460433965, 0.050009346009596715, 0.08477487014302922]])"
      ]
     },
     "execution_count": 7,
     "metadata": {},
     "output_type": "execute_result"
    }
   ],
   "source": [
    "numdata = 16\n",
    "# soropos = [\n",
    "#     1.243147e-02,0,9.813514e-03,\n",
    "#     2.485175e-02,0,9.254224e-03,\n",
    "#     3.724967e-02,0,8.322633e-03,\n",
    "#     4.961406e-02,0,7.019579e-03,\n",
    "#     6.193380e-02,0,5.346236e-03,\n",
    "#     7.419781e-02,0,3.304108e-03,\n",
    "#     8.639505e-02,0,8.950347e-04,\n",
    "#     9.851453e-02,0,-1.878817e-03, \n",
    "#     1.105454e-01,0,-5.014951e-03]\n",
    "soropos = trainInterpolate[0][numdata]['position']\n",
    "act = trainInterpolate[0][numdata]['actuation']\n",
    "soropos = np.array(soropos).reshape(-1,3)\n",
    "\n",
    "\n",
    "act,soropos.tolist()"
   ]
  },
  {
   "cell_type": "code",
   "execution_count": 8,
   "metadata": {},
   "outputs": [],
   "source": [
    "# Check DirichletBoundaryCondition is set up properly\n",
    "\n",
    "for i in range(node_nums[0]):\n",
    "    for j in range(node_nums[1]):\n",
    "        node_idx = i * node_nums[1] * node_nums[2] + j * node_nums[2]\n",
    "        vx, vy, vz = mesh.py_vertex(node_idx)\n",
    "        assert vz ==0\n"
   ]
  },
  {
   "cell_type": "code",
   "execution_count": 9,
   "metadata": {},
   "outputs": [
    {
     "name": "stdout",
     "output_type": "stream",
     "text": [
      "1005\n",
      "1006\n",
      "1007\n",
      "1008\n",
      "1009\n",
      "1010\n",
      "1011\n",
      "1012\n",
      "1013\n",
      "1014\n",
      "1015\n",
      "1016\n",
      "1017\n",
      "1018\n",
      "1019\n",
      "1020\n",
      "1021\n",
      "1022\n",
      "1023\n",
      "1024\n",
      "1025\n",
      "1026\n",
      "1027\n",
      "1028\n",
      "1029\n",
      "1030\n",
      "1031\n",
      "1032\n",
      "1033\n",
      "1034\n",
      "1035\n",
      "1036\n",
      "1037\n",
      "1038\n",
      "1039\n",
      "1040\n",
      "1041\n",
      "1042\n",
      "1043\n",
      "1044\n",
      "1045\n",
      "1046\n",
      "1047\n",
      "1048\n",
      "1049\n",
      "1050\n",
      "1051\n",
      "1052\n",
      "1053\n",
      "1054\n",
      "1055\n",
      "1056\n",
      "1057\n",
      "1058\n",
      "1059\n",
      "1060\n",
      "1061\n",
      "1062\n",
      "1063\n",
      "1064\n",
      "1065\n",
      "1066\n",
      "1067\n",
      "1068\n",
      "1069\n",
      "1070\n",
      "1273\n",
      "1274\n",
      "1275\n",
      "1276\n",
      "1277\n",
      "1278\n",
      "1279\n",
      "1280\n",
      "1281\n",
      "1282\n",
      "1283\n",
      "1284\n",
      "1285\n",
      "1286\n",
      "1287\n",
      "1288\n",
      "1289\n",
      "1290\n",
      "1291\n",
      "1292\n",
      "1293\n",
      "1294\n",
      "1295\n",
      "1296\n",
      "1297\n",
      "1298\n",
      "1299\n",
      "1300\n",
      "1301\n",
      "1302\n",
      "1303\n",
      "1304\n",
      "1305\n",
      "1306\n",
      "1307\n",
      "1308\n",
      "1309\n",
      "1310\n",
      "1311\n",
      "1312\n",
      "1313\n",
      "1314\n",
      "1315\n",
      "1316\n",
      "1317\n",
      "1318\n",
      "1319\n",
      "1320\n",
      "1321\n",
      "1322\n",
      "1323\n",
      "1324\n",
      "1325\n",
      "1326\n",
      "1327\n",
      "1328\n",
      "1329\n",
      "1330\n",
      "1331\n",
      "1332\n",
      "1333\n",
      "1334\n",
      "1335\n",
      "1336\n",
      "1337\n",
      "1338\n",
      "3015\n",
      "3016\n",
      "3017\n",
      "3018\n",
      "3019\n",
      "3020\n",
      "3021\n",
      "3022\n",
      "3023\n",
      "3024\n",
      "3025\n",
      "3026\n",
      "3027\n",
      "3028\n",
      "3029\n",
      "3030\n",
      "3031\n",
      "3032\n",
      "3033\n",
      "3034\n",
      "3035\n",
      "3036\n",
      "3037\n",
      "3038\n",
      "3039\n",
      "3040\n",
      "3041\n",
      "3042\n",
      "3043\n",
      "3044\n",
      "3045\n",
      "3046\n",
      "3047\n",
      "3048\n",
      "3049\n",
      "3050\n",
      "3051\n",
      "3052\n",
      "3053\n",
      "3054\n",
      "3055\n",
      "3056\n",
      "3057\n",
      "3058\n",
      "3059\n",
      "3060\n",
      "3061\n",
      "3062\n",
      "3063\n",
      "3064\n",
      "3065\n",
      "3066\n",
      "3067\n",
      "3068\n",
      "3069\n",
      "3070\n",
      "3071\n",
      "3072\n",
      "3073\n",
      "3074\n",
      "3075\n",
      "3076\n",
      "3077\n",
      "3078\n",
      "3079\n",
      "3080\n",
      "6231\n",
      "6232\n",
      "6233\n",
      "6234\n",
      "6235\n",
      "6236\n",
      "6237\n",
      "6238\n",
      "6239\n",
      "6240\n",
      "6241\n",
      "6242\n",
      "6243\n",
      "6244\n",
      "6245\n",
      "6246\n",
      "6247\n",
      "6248\n",
      "6249\n",
      "6250\n",
      "6251\n",
      "6252\n",
      "6253\n",
      "6254\n",
      "6255\n",
      "6256\n",
      "6257\n",
      "6258\n",
      "6259\n",
      "6260\n",
      "6261\n",
      "6262\n",
      "6263\n",
      "6264\n",
      "6265\n",
      "6266\n",
      "6267\n",
      "6268\n",
      "6269\n",
      "6270\n",
      "6271\n",
      "6272\n",
      "6273\n",
      "6274\n",
      "6275\n",
      "6276\n",
      "6277\n",
      "6278\n",
      "6279\n",
      "6280\n",
      "6281\n",
      "6282\n",
      "6283\n",
      "6284\n",
      "6285\n",
      "6286\n",
      "6287\n",
      "6288\n",
      "6289\n",
      "6290\n",
      "6291\n",
      "6292\n",
      "6293\n",
      "6294\n",
      "6295\n",
      "6296\n",
      "7705\n",
      "7706\n",
      "7707\n",
      "7708\n",
      "7709\n",
      "7710\n",
      "7711\n",
      "7712\n",
      "7713\n",
      "7714\n",
      "7715\n",
      "7716\n",
      "7717\n",
      "7718\n",
      "7719\n",
      "7720\n",
      "7721\n",
      "7722\n",
      "7723\n",
      "7724\n",
      "7725\n",
      "7726\n",
      "7727\n",
      "7728\n",
      "7729\n",
      "7730\n",
      "7731\n",
      "7732\n",
      "7733\n",
      "7734\n",
      "7735\n",
      "7736\n",
      "7737\n",
      "7738\n",
      "7739\n",
      "7740\n",
      "7741\n",
      "7742\n",
      "7743\n",
      "7744\n",
      "7745\n",
      "7746\n",
      "7747\n",
      "7748\n",
      "7749\n",
      "7750\n",
      "7751\n",
      "7752\n",
      "7753\n",
      "7754\n",
      "7755\n",
      "7756\n",
      "7757\n",
      "7758\n",
      "7759\n",
      "7760\n",
      "7761\n",
      "7762\n",
      "7763\n",
      "7764\n",
      "7765\n",
      "7766\n",
      "7767\n",
      "7768\n",
      "7769\n",
      "7770\n",
      "7437\n",
      "7438\n",
      "7439\n",
      "7440\n",
      "7441\n",
      "7442\n",
      "7443\n",
      "7444\n",
      "7445\n",
      "7446\n",
      "7447\n",
      "7448\n",
      "7449\n",
      "7450\n",
      "7451\n",
      "7452\n",
      "7453\n",
      "7454\n",
      "7455\n",
      "7456\n",
      "7457\n",
      "7458\n",
      "7459\n",
      "7460\n",
      "7461\n",
      "7462\n",
      "7463\n",
      "7464\n",
      "7465\n",
      "7466\n",
      "7467\n",
      "7468\n",
      "7469\n",
      "7470\n",
      "7471\n",
      "7472\n",
      "7473\n",
      "7474\n",
      "7475\n",
      "7476\n",
      "7477\n",
      "7478\n",
      "7479\n",
      "7480\n",
      "7481\n",
      "7482\n",
      "7483\n",
      "7484\n",
      "7485\n",
      "7486\n",
      "7487\n",
      "7488\n",
      "7489\n",
      "7490\n",
      "7491\n",
      "7492\n",
      "7493\n",
      "7494\n",
      "7495\n",
      "7496\n",
      "7497\n",
      "7498\n",
      "7499\n",
      "7500\n",
      "7501\n",
      "7502\n",
      "5695\n",
      "5696\n",
      "5697\n",
      "5698\n",
      "5699\n",
      "5700\n",
      "5701\n",
      "5702\n",
      "5703\n",
      "5704\n",
      "5705\n",
      "5706\n",
      "5707\n",
      "5708\n",
      "5709\n",
      "5710\n",
      "5711\n",
      "5712\n",
      "5713\n",
      "5714\n",
      "5715\n",
      "5716\n",
      "5717\n",
      "5718\n",
      "5719\n",
      "5720\n",
      "5721\n",
      "5722\n",
      "5723\n",
      "5724\n",
      "5725\n",
      "5726\n",
      "5727\n",
      "5728\n",
      "5729\n",
      "5730\n",
      "5731\n",
      "5732\n",
      "5733\n",
      "5734\n",
      "5735\n",
      "5736\n",
      "5737\n",
      "5738\n",
      "5739\n",
      "5740\n",
      "5741\n",
      "5742\n",
      "5743\n",
      "5744\n",
      "5745\n",
      "5746\n",
      "5747\n",
      "5748\n",
      "5749\n",
      "5750\n",
      "5751\n",
      "5752\n",
      "5753\n",
      "5754\n",
      "5755\n",
      "5756\n",
      "5757\n",
      "5758\n",
      "5759\n",
      "5760\n",
      "2479\n",
      "2480\n",
      "2481\n",
      "2482\n",
      "2483\n",
      "2484\n",
      "2485\n",
      "2486\n",
      "2487\n",
      "2488\n",
      "2489\n",
      "2490\n",
      "2491\n",
      "2492\n",
      "2493\n",
      "2494\n",
      "2495\n",
      "2496\n",
      "2497\n",
      "2498\n",
      "2499\n",
      "2500\n",
      "2501\n",
      "2502\n",
      "2503\n",
      "2504\n",
      "2505\n",
      "2506\n",
      "2507\n",
      "2508\n",
      "2509\n",
      "2510\n",
      "2511\n",
      "2512\n",
      "2513\n",
      "2514\n",
      "2515\n",
      "2516\n",
      "2517\n",
      "2518\n",
      "2519\n",
      "2520\n",
      "2521\n",
      "2522\n",
      "2523\n",
      "2524\n",
      "2525\n",
      "2526\n",
      "2527\n",
      "2528\n",
      "2529\n",
      "2530\n",
      "2531\n",
      "2532\n",
      "2533\n",
      "2534\n",
      "2535\n",
      "2536\n",
      "2537\n",
      "2538\n",
      "2539\n",
      "2540\n",
      "2541\n",
      "2542\n",
      "2543\n",
      "2544\n"
     ]
    }
   ],
   "source": [
    "# Check actmaps are set up properly\n",
    "acts = env.act_maps()\n",
    "for act_map in acts:\n",
    "    for idx in range(cell_nums[2]):\n",
    "        element = act_map[idx]\n",
    "        vertex = mesh.py_element(element)[0]\n",
    "        xy = mesh.py_vertex(vertex)[0],mesh.py_vertex(vertex)[1]\n",
    "        if idx ==0:\n",
    "            standard = xy\n",
    "\n",
    "        print(vertex)\n",
    "        assert xy == standard\n",
    "    for idx in range(cell_nums[2],2*cell_nums[2]):\n",
    "        element = act_map[idx]\n",
    "        vertex = mesh.py_element(element)[0]\n",
    "        xy = mesh.py_vertex(vertex)[0],mesh.py_vertex(vertex)[1]\n",
    "        if idx ==cell_nums[2]:\n",
    "            standard = xy\n",
    "        \n",
    "        print(vertex)\n",
    "        assert xy == standard"
   ]
  },
  {
   "cell_type": "code",
   "execution_count": 13,
   "metadata": {},
   "outputs": [
    {
     "name": "stdout",
     "output_type": "stream",
     "text": [
      "Actuation: [0, 100, 0, 0]\n",
      "position: [[0.01051419 0.02040524 0.01132963]\n",
      " [0.01204991 0.02161557 0.02250843]\n",
      " [0.01458672 0.02361488 0.0333876 ]\n",
      " [0.01809084 0.02637655 0.04382232]\n",
      " [0.02251564 0.02986382 0.05367368]\n",
      " [0.0278022  0.03403026 0.06281052]\n",
      " [0.03388016 0.03882042 0.07111124]\n",
      " [0.0406686  0.04417052 0.07846532]\n",
      " [0.04807715 0.05000935 0.08477487]]\n"
     ]
    }
   ],
   "source": [
    "data = {'actuation':act, 'position': soropos}\n",
    "# act = data['actuation']\n",
    "act = [0,100,0,0]\n",
    "print('Actuation:', act)\n",
    "act = [ele for ele in act]\n",
    "act = variable_to_act(act)\n",
    "markers = data['position']\n",
    "print('position:', markers)\n",
    "env._construct_loss_and_grad(markers)"
   ]
  },
  {
   "cell_type": "code",
   "execution_count": 14,
   "metadata": {},
   "outputs": [
    {
     "name": "stderr",
     "output_type": "stream",
     "text": [
      "ffmpeg version 3.4.8-0ubuntu0.2 Copyright (c) 2000-2020 the FFmpeg developers\n",
      "  built with gcc 7 (Ubuntu 7.5.0-3ubuntu1~18.04)\n",
      "  configuration: --prefix=/usr --extra-version=0ubuntu0.2 --toolchain=hardened --libdir=/usr/lib/x86_64-linux-gnu --incdir=/usr/include/x86_64-linux-gnu --enable-gpl --disable-stripping --enable-avresample --enable-avisynth --enable-gnutls --enable-ladspa --enable-libass --enable-libbluray --enable-libbs2b --enable-libcaca --enable-libcdio --enable-libflite --enable-libfontconfig --enable-libfreetype --enable-libfribidi --enable-libgme --enable-libgsm --enable-libmp3lame --enable-libmysofa --enable-libopenjpeg --enable-libopenmpt --enable-libopus --enable-libpulse --enable-librubberband --enable-librsvg --enable-libshine --enable-libsnappy --enable-libsoxr --enable-libspeex --enable-libssh --enable-libtheora --enable-libtwolame --enable-libvorbis --enable-libvpx --enable-libwavpack --enable-libwebp --enable-libx265 --enable-libxml2 --enable-libxvid --enable-libzmq --enable-libzvbi --enable-omx --enable-openal --enable-opengl --enable-sdl2 --enable-libdc1394 --enable-libdrm --enable-libiec61883 --enable-chromaprint --enable-frei0r --enable-libopencv --enable-libx264 --enable-shared\n",
      "  libavutil      55. 78.100 / 55. 78.100\n",
      "  libavcodec     57.107.100 / 57.107.100\n",
      "  libavformat    57. 83.100 / 57. 83.100\n",
      "  libavdevice    57. 10.100 / 57. 10.100\n",
      "  libavfilter     6.107.100 /  6.107.100\n",
      "  libavresample   3.  7.  0 /  3.  7.  0\n",
      "  libswscale      4.  8.100 /  4.  8.100\n",
      "  libswresample   2.  9.100 /  2.  9.100\n",
      "  libpostproc    54.  7.100 / 54.  7.100\n",
      "Input #0, image2, from '_export_mp4/%08d.png':\n",
      "  Duration: 00:00:00.44, start: 0.000000, bitrate: N/A\n",
      "    Stream #0:0: Video: png, rgba64be(pc), 800x800, 25 fps, 25 tbr, 25 tbn, 25 tbc\n",
      "Stream mapping:\n",
      "  Stream #0:0 -> #0:0 (png (native) -> h264 (libx264))\n",
      "Press [q] to stop, [?] for help\n",
      "[libx264 @ 0x561c368d2920] using cpu capabilities: MMX2 SSE2Fast SSSE3 SSE4.2 AVX FMA3 BMI2 AVX2\n",
      "[libx264 @ 0x561c368d2920] profile High 4:4:4 Predictive, level 3.1, 4:4:4 8-bit\n",
      "[libx264 @ 0x561c368d2920] 264 - core 152 r2854 e9a5903 - H.264/MPEG-4 AVC codec - Copyleft 2003-2017 - http://www.videolan.org/x264.html - options: cabac=1 ref=3 deblock=1:0:0 analyse=0x1:0x111 me=hex subme=7 psy=1 psy_rd=1.00:0.00 mixed_ref=1 me_range=16 chroma_me=1 trellis=1 8x8dct=0 cqm=0 deadzone=21,11 fast_pskip=1 chroma_qp_offset=4 threads=25 lookahead_threads=4 sliced_threads=0 nr=0 decimate=1 interlaced=0 bluray_compat=0 constrained_intra=0 bframes=3 b_pyramid=2 b_adapt=1 b_bias=0 direct=1 weightb=1 open_gop=0 weightp=2 keyint=250 keyint_min=20 scenecut=40 intra_refresh=0 rc_lookahead=40 rc=crf mbtree=1 crf=23.0 qcomp=0.60 qpmin=0 qpmax=69 qpstep=4 ip_ratio=1.40 aq=1:1.00\n",
      "Output #0, mp4, to 'custom_routing_tendon/test.mp4':\n",
      "  Metadata:\n",
      "    encoder         : Lavf57.83.100\n",
      "    Stream #0:0: Video: h264 (libx264) (avc1 / 0x31637661), yuv444p, 800x800, q=-1--1, 20 fps, 10240 tbn, 20 tbc\n",
      "    Metadata:\n",
      "      encoder         : Lavc57.107.100 libx264\n",
      "    Side data:\n",
      "      cpb: bitrate max/min/avg: 0/0/0 buffer size: 0 vbv_delay: -1\n",
      "frame=   11 fps=0.0 q=-1.0 Lsize=     334kB time=00:00:00.40 bitrate=6838.8kbits/s speed=1.71x    \n",
      "video:333kB audio:0kB subtitle:0kB other streams:0kB global headers:0kB muxing overhead: 0.283530%\n",
      "[libx264 @ 0x561c368d2920] frame I:1     Avg QP:24.57  size:284841\n",
      "[libx264 @ 0x561c368d2920] frame P:3     Avg QP:28.66  size: 10047\n",
      "[libx264 @ 0x561c368d2920] frame B:7     Avg QP:31.36  size:  3627\n",
      "[libx264 @ 0x561c368d2920] consecutive B-frames:  9.1% 18.2%  0.0% 72.7%\n",
      "[libx264 @ 0x561c368d2920] mb I  I16..4: 48.8%  0.0% 51.2%\n",
      "[libx264 @ 0x561c368d2920] mb P  I16..4:  0.0%  0.0%  1.5%  P16..4:  8.9%  0.4%  0.6%  0.0%  0.0%    skip:88.5%\n",
      "[libx264 @ 0x561c368d2920] mb B  I16..4:  0.0%  0.0%  0.2%  B16..8:  4.2%  0.4%  0.4%  direct: 1.2%  skip:93.6%  L0:31.0% L1:63.6% BI: 5.4%\n",
      "[libx264 @ 0x561c368d2920] coded y,u,v intra: 100.0% 49.8% 6.4% inter: 3.0% 0.2% 0.6%\n",
      "[libx264 @ 0x561c368d2920] i16 v,h,dc,p:  0%  1% 88% 11%\n",
      "[libx264 @ 0x561c368d2920] i4 v,h,dc,ddl,ddr,vr,hd,vl,hu:  3%  3% 32% 12% 11%  9% 14%  8%  8%\n",
      "[libx264 @ 0x561c368d2920] Weighted P-Frames: Y:0.0% UV:0.0%\n",
      "[libx264 @ 0x561c368d2920] ref P L0: 65.4% 15.5% 17.7%  1.5%\n",
      "[libx264 @ 0x561c368d2920] ref B L0: 91.7%  6.9%  1.4%\n",
      "[libx264 @ 0x561c368d2920] ref B L1: 95.8%  4.2%\n",
      "[libx264 @ 0x561c368d2920] kb/s:4950.81\n"
     ]
    }
   ],
   "source": [
    "vis_folder = 'test'\n",
    "loss, info = env.simulate(dt, frame_num, methods[0], opts[0], q0, v0, \\\n",
    "    [act for _ in range(frame_num)], f0, require_grad=False, vis_folder=vis_folder)\n"
   ]
  },
  {
   "cell_type": "code",
   "execution_count": 15,
   "metadata": {},
   "outputs": [],
   "source": [
    "from py_diff_pd.core.py_diff_pd_core import HexMesh3d\n",
    "from py_diff_pd.common.project_path import root_path\n",
    "\n",
    "vis_folder = 'test'\n",
    "file_name = 'test' +'.png'\n",
    "\n",
    "i = 10\n",
    "mesh_file = str(env._folder / vis_folder / '{:04d}.bin'.format(i))\n",
    "\n",
    "## Side view\n",
    "options = {\n",
    "    'file_name': file_name,\n",
    "    'light_map': 'uffizi-large.exr',\n",
    "    'max_depth': 2,\n",
    "    'camera_pos': (1, 0.3, .25),\n",
    "    'camera_lookat': (-0.1, 0, 0.15),\n",
    "}\n",
    "\n",
    "env._display_mesh(mesh_file, file_name,options)"
   ]
  },
  {
   "cell_type": "code",
   "execution_count": 17,
   "metadata": {},
   "outputs": [],
   "source": [
    "from py_diff_pd.core.py_diff_pd_core import HexMesh3d\n",
    "from py_diff_pd.common.project_path import root_path\n",
    "\n",
    "vis_folder = 'test'\n",
    "file_name = 'test' +'.png'\n",
    "\n",
    "i = 10\n",
    "mesh_file = str(env._folder / vis_folder / '{:04d}.bin'.format(i))\n",
    "\n",
    "# Render.\n",
    "\n",
    "# ## Front view\n",
    "# options = {\n",
    "#     'file_name': file_name,\n",
    "#     'light_map': 'uffizi-large.exr',\n",
    "#     'max_depth': 2,\n",
    "#     'camera_pos': (0.4, -1., .25),\n",
    "#     'camera_lookat': (0, .15, .15),\n",
    "# }\n",
    "\n",
    "# ## Back view\n",
    "# options = {\n",
    "#     'file_name': file_name,\n",
    "#     'light_map': 'uffizi-large.exr',\n",
    "#     'max_depth': 2,\n",
    "#     'camera_pos': (0.2, 1, .55),\n",
    "#     'camera_lookat': (0, -.55, -.15),\n",
    "# }\n",
    "\n",
    "## Side view\n",
    "options = {\n",
    "    'file_name': file_name,\n",
    "    'light_map': 'uffizi-large.exr',\n",
    "    'max_depth': 2,\n",
    "    'camera_pos': (1, 0.3, .25),\n",
    "    'camera_lookat': (-0.1, 0, 0.15),\n",
    "}\n",
    "\n",
    "renderer = PbrtRenderer(options)\n",
    "\n",
    "mesh = HexMesh3d()\n",
    "mesh.Initialize(mesh_file)\n",
    "renderer.add_hex_mesh(mesh, render_voxel_edge=True, color=(.3, .7, .5), transforms=[\n",
    "    ('s', env._scale),\n",
    "])\n",
    "renderer.add_tri_mesh(Path(root_path) / 'asset/mesh/curved_ground.obj',\n",
    "    texture_img='chkbd_24_0.7', transforms=[('s', 2)])\n",
    "\n",
    "for element in env.act_maps()[0]:\n",
    "    vertices = mesh.py_element(element)\n",
    "    out = np.zeros(8*3).reshape(8,3)\n",
    "    assert len(vertices) == 8\n",
    "    for id,vertice in enumerate(vertices):\n",
    "        out[id] = mesh.py_vertex(vertice)\n",
    "\n",
    "    marker = out.mean(0)\n",
    "    \n",
    "    renderer.add_shape_mesh({ 'name': 'sphere', 'center': marker, 'radius': env._dx*env._scale },\n",
    "        transforms=[('s', env._scale)], color=(0.1, 0.1, 0.9))\n",
    "\n",
    "\n",
    "renderer.render()"
   ]
  },
  {
   "cell_type": "code",
   "execution_count": 7,
   "metadata": {},
   "outputs": [
    {
     "name": "stderr",
     "output_type": "stream",
     "text": [
      "ffmpeg version 3.4.8-0ubuntu0.2 Copyright (c) 2000-2020 the FFmpeg developers\n",
      "  built with gcc 7 (Ubuntu 7.5.0-3ubuntu1~18.04)\n",
      "  configuration: --prefix=/usr --extra-version=0ubuntu0.2 --toolchain=hardened --libdir=/usr/lib/x86_64-linux-gnu --incdir=/usr/include/x86_64-linux-gnu --enable-gpl --disable-stripping --enable-avresample --enable-avisynth --enable-gnutls --enable-ladspa --enable-libass --enable-libbluray --enable-libbs2b --enable-libcaca --enable-libcdio --enable-libflite --enable-libfontconfig --enable-libfreetype --enable-libfribidi --enable-libgme --enable-libgsm --enable-libmp3lame --enable-libmysofa --enable-libopenjpeg --enable-libopenmpt --enable-libopus --enable-libpulse --enable-librubberband --enable-librsvg --enable-libshine --enable-libsnappy --enable-libsoxr --enable-libspeex --enable-libssh --enable-libtheora --enable-libtwolame --enable-libvorbis --enable-libvpx --enable-libwavpack --enable-libwebp --enable-libx265 --enable-libxml2 --enable-libxvid --enable-libzmq --enable-libzvbi --enable-omx --enable-openal --enable-opengl --enable-sdl2 --enable-libdc1394 --enable-libdrm --enable-libiec61883 --enable-chromaprint --enable-frei0r --enable-libopencv --enable-libx264 --enable-shared\n",
      "  libavutil      55. 78.100 / 55. 78.100\n",
      "  libavcodec     57.107.100 / 57.107.100\n",
      "  libavformat    57. 83.100 / 57. 83.100\n",
      "  libavdevice    57. 10.100 / 57. 10.100\n",
      "  libavfilter     6.107.100 /  6.107.100\n",
      "  libavresample   3.  7.  0 /  3.  7.  0\n",
      "  libswscale      4.  8.100 /  4.  8.100\n",
      "  libswresample   2.  9.100 /  2.  9.100\n",
      "  libpostproc    54.  7.100 / 54.  7.100\n",
      "Input #0, image2, from '_export_mp4/%08d.png':\n",
      "  Duration: 00:00:00.44, start: 0.000000, bitrate: N/A\n",
      "    Stream #0:0: Video: png, rgba64be(pc), 800x800, 25 fps, 25 tbr, 25 tbn, 25 tbc\n",
      "Stream mapping:\n",
      "  Stream #0:0 -> #0:0 (png (native) -> h264 (libx264))\n",
      "Press [q] to stop, [?] for help\n",
      "[libx264 @ 0x55c28ec65920] using cpu capabilities: MMX2 SSE2Fast SSSE3 SSE4.2 AVX FMA3 BMI2 AVX2\n",
      "[libx264 @ 0x55c28ec65920] profile High 4:4:4 Predictive, level 3.1, 4:4:4 8-bit\n",
      "[libx264 @ 0x55c28ec65920] 264 - core 152 r2854 e9a5903 - H.264/MPEG-4 AVC codec - Copyleft 2003-2017 - http://www.videolan.org/x264.html - options: cabac=1 ref=3 deblock=1:0:0 analyse=0x1:0x111 me=hex subme=7 psy=1 psy_rd=1.00:0.00 mixed_ref=1 me_range=16 chroma_me=1 trellis=1 8x8dct=0 cqm=0 deadzone=21,11 fast_pskip=1 chroma_qp_offset=4 threads=25 lookahead_threads=4 sliced_threads=0 nr=0 decimate=1 interlaced=0 bluray_compat=0 constrained_intra=0 bframes=3 b_pyramid=2 b_adapt=1 b_bias=0 direct=1 weightb=1 open_gop=0 weightp=2 keyint=250 keyint_min=20 scenecut=40 intra_refresh=0 rc_lookahead=40 rc=crf mbtree=1 crf=23.0 qcomp=0.60 qpmin=0 qpmax=69 qpstep=4 ip_ratio=1.40 aq=1:1.00\n",
      "Output #0, mp4, to 'custom_routing_tendon/test0.mp4':\n",
      "  Metadata:\n",
      "    encoder         : Lavf57.83.100\n",
      "    Stream #0:0: Video: h264 (libx264) (avc1 / 0x31637661), yuv444p, 800x800, q=-1--1, 20 fps, 10240 tbn, 20 tbc\n",
      "    Metadata:\n",
      "      encoder         : Lavc57.107.100 libx264\n",
      "    Side data:\n",
      "      cpb: bitrate max/min/avg: 0/0/0 buffer size: 0 vbv_delay: -1\n",
      "frame=   11 fps=0.0 q=-1.0 Lsize=     320kB time=00:00:00.40 bitrate=6545.1kbits/s speed= 1.6x    \n",
      "video:319kB audio:0kB subtitle:0kB other streams:0kB global headers:0kB muxing overhead: 0.296292%\n",
      "[libx264 @ 0x55c28ec65920] frame I:1     Avg QP:24.17  size:299315\n",
      "[libx264 @ 0x55c28ec65920] frame P:3     Avg QP:28.70  size:  5508\n",
      "[libx264 @ 0x55c28ec65920] frame B:7     Avg QP:31.68  size:  1406\n",
      "[libx264 @ 0x55c28ec65920] consecutive B-frames:  9.1% 18.2%  0.0% 72.7%\n",
      "[libx264 @ 0x55c28ec65920] mb I  I16..4:  0.0%  0.0% 100.0%\n",
      "[libx264 @ 0x55c28ec65920] mb P  I16..4:  0.0%  0.0%  0.2%  P16..4:  7.1%  0.5%  0.5%  0.0%  0.0%    skip:91.8%\n",
      "[libx264 @ 0x55c28ec65920] mb B  I16..4:  0.0%  0.0%  0.0%  B16..8:  2.9%  0.3%  0.2%  direct: 1.3%  skip:95.2%  L0:40.1% L1:56.7% BI: 3.2%\n",
      "[libx264 @ 0x55c28ec65920] coded y,u,v intra: 100.0% 56.9% 4.0% inter: 2.0% 0.4% 0.5%\n",
      "[libx264 @ 0x55c28ec65920] i4 v,h,dc,ddl,ddr,vr,hd,vl,hu:  4%  4% 31% 13% 11%  9% 13%  8%  8%\n",
      "[libx264 @ 0x55c28ec65920] Weighted P-Frames: Y:0.0% UV:0.0%\n",
      "[libx264 @ 0x55c28ec65920] ref P L0: 75.6% 10.0% 13.5%  0.8%\n",
      "[libx264 @ 0x55c28ec65920] ref B L0: 95.9%  4.1%  0.1%\n",
      "[libx264 @ 0x55c28ec65920] ref B L1: 97.5%  2.5%\n",
      "[libx264 @ 0x55c28ec65920] kb/s:4737.13\n",
      "ffmpeg version 3.4.8-0ubuntu0.2 Copyright (c) 2000-2020 the FFmpeg developers\n",
      "  built with gcc 7 (Ubuntu 7.5.0-3ubuntu1~18.04)\n",
      "  configuration: --prefix=/usr --extra-version=0ubuntu0.2 --toolchain=hardened --libdir=/usr/lib/x86_64-linux-gnu --incdir=/usr/include/x86_64-linux-gnu --enable-gpl --disable-stripping --enable-avresample --enable-avisynth --enable-gnutls --enable-ladspa --enable-libass --enable-libbluray --enable-libbs2b --enable-libcaca --enable-libcdio --enable-libflite --enable-libfontconfig --enable-libfreetype --enable-libfribidi --enable-libgme --enable-libgsm --enable-libmp3lame --enable-libmysofa --enable-libopenjpeg --enable-libopenmpt --enable-libopus --enable-libpulse --enable-librubberband --enable-librsvg --enable-libshine --enable-libsnappy --enable-libsoxr --enable-libspeex --enable-libssh --enable-libtheora --enable-libtwolame --enable-libvorbis --enable-libvpx --enable-libwavpack --enable-libwebp --enable-libx265 --enable-libxml2 --enable-libxvid --enable-libzmq --enable-libzvbi --enable-omx --enable-openal --enable-opengl --enable-sdl2 --enable-libdc1394 --enable-libdrm --enable-libiec61883 --enable-chromaprint --enable-frei0r --enable-libopencv --enable-libx264 --enable-shared\n",
      "  libavutil      55. 78.100 / 55. 78.100\n",
      "  libavcodec     57.107.100 / 57.107.100\n",
      "  libavformat    57. 83.100 / 57. 83.100\n",
      "  libavdevice    57. 10.100 / 57. 10.100\n",
      "  libavfilter     6.107.100 /  6.107.100\n",
      "  libavresample   3.  7.  0 /  3.  7.  0\n",
      "  libswscale      4.  8.100 /  4.  8.100\n",
      "  libswresample   2.  9.100 /  2.  9.100\n",
      "  libpostproc    54.  7.100 / 54.  7.100\n",
      "Input #0, image2, from '_export_mp4/%08d.png':\n",
      "  Duration: 00:00:00.44, start: 0.000000, bitrate: N/A\n",
      "    Stream #0:0: Video: png, rgba64be(pc), 800x800, 25 fps, 25 tbr, 25 tbn, 25 tbc\n",
      "Stream mapping:\n",
      "  Stream #0:0 -> #0:0 (png (native) -> h264 (libx264))\n",
      "Press [q] to stop, [?] for help\n",
      "[libx264 @ 0x55b913cdb920] using cpu capabilities: MMX2 SSE2Fast SSSE3 SSE4.2 AVX FMA3 BMI2 AVX2\n",
      "[libx264 @ 0x55b913cdb920] profile High 4:4:4 Predictive, level 3.1, 4:4:4 8-bit\n",
      "[libx264 @ 0x55b913cdb920] 264 - core 152 r2854 e9a5903 - H.264/MPEG-4 AVC codec - Copyleft 2003-2017 - http://www.videolan.org/x264.html - options: cabac=1 ref=3 deblock=1:0:0 analyse=0x1:0x111 me=hex subme=7 psy=1 psy_rd=1.00:0.00 mixed_ref=1 me_range=16 chroma_me=1 trellis=1 8x8dct=0 cqm=0 deadzone=21,11 fast_pskip=1 chroma_qp_offset=4 threads=25 lookahead_threads=4 sliced_threads=0 nr=0 decimate=1 interlaced=0 bluray_compat=0 constrained_intra=0 bframes=3 b_pyramid=2 b_adapt=1 b_bias=0 direct=1 weightb=1 open_gop=0 weightp=2 keyint=250 keyint_min=20 scenecut=40 intra_refresh=0 rc_lookahead=40 rc=crf mbtree=1 crf=23.0 qcomp=0.60 qpmin=0 qpmax=69 qpstep=4 ip_ratio=1.40 aq=1:1.00\n",
      "Output #0, mp4, to 'custom_routing_tendon/test1.mp4':\n",
      "  Metadata:\n",
      "    encoder         : Lavf57.83.100\n",
      "    Stream #0:0: Video: h264 (libx264) (avc1 / 0x31637661), yuv444p, 800x800, q=-1--1, 20 fps, 10240 tbn, 20 tbc\n",
      "    Metadata:\n",
      "      encoder         : Lavc57.107.100 libx264\n",
      "    Side data:\n",
      "      cpb: bitrate max/min/avg: 0/0/0 buffer size: 0 vbv_delay: -1\n",
      "frame=   11 fps=0.0 q=-1.0 Lsize=     306kB time=00:00:00.40 bitrate=6265.9kbits/s speed=1.79x    \n",
      "video:305kB audio:0kB subtitle:0kB other streams:0kB global headers:0kB muxing overhead: 0.309534%\n",
      "[libx264 @ 0x55b913cdb920] frame I:1     Avg QP:24.06  size:300826\n",
      "[libx264 @ 0x55b913cdb920] frame P:3     Avg QP:28.95  size:  2744\n",
      "[libx264 @ 0x55b913cdb920] frame B:7     Avg QP:32.15  size:   380\n",
      "[libx264 @ 0x55b913cdb920] consecutive B-frames:  9.1% 18.2%  0.0% 72.7%\n",
      "[libx264 @ 0x55b913cdb920] mb I  I16..4:  7.4%  0.0% 92.6%\n",
      "[libx264 @ 0x55b913cdb920] mb P  I16..4:  0.0%  0.0%  0.0%  P16..4:  5.3%  0.2%  0.3%  0.0%  0.0%    skip:94.3%\n",
      "[libx264 @ 0x55b913cdb920] mb B  I16..4:  0.0%  0.0%  0.0%  B16..8:  2.0%  0.2%  0.1%  direct: 0.6%  skip:97.1%  L0:29.2% L1:68.3% BI: 2.5%\n",
      "[libx264 @ 0x55b913cdb920] coded y,u,v intra: 100.0% 56.0% 3.6% inter: 1.0% 0.1% 0.2%\n",
      "[libx264 @ 0x55b913cdb920] i16 v,h,dc,p:  0%  0% 95%  5%\n",
      "[libx264 @ 0x55b913cdb920] i4 v,h,dc,ddl,ddr,vr,hd,vl,hu:  4%  4% 31% 12% 11%  9% 13%  8%  8%\n",
      "[libx264 @ 0x55b913cdb920] Weighted P-Frames: Y:0.0% UV:0.0%\n",
      "[libx264 @ 0x55b913cdb920] ref P L0: 69.1% 13.5% 15.4%  2.0%\n",
      "[libx264 @ 0x55b913cdb920] ref B L0: 95.0%  3.6%  1.4%\n",
      "[libx264 @ 0x55b913cdb920] ref B L1: 97.4%  2.6%\n",
      "[libx264 @ 0x55b913cdb920] kb/s:4534.05\n",
      "ffmpeg version 3.4.8-0ubuntu0.2 Copyright (c) 2000-2020 the FFmpeg developers\n",
      "  built with gcc 7 (Ubuntu 7.5.0-3ubuntu1~18.04)\n",
      "  configuration: --prefix=/usr --extra-version=0ubuntu0.2 --toolchain=hardened --libdir=/usr/lib/x86_64-linux-gnu --incdir=/usr/include/x86_64-linux-gnu --enable-gpl --disable-stripping --enable-avresample --enable-avisynth --enable-gnutls --enable-ladspa --enable-libass --enable-libbluray --enable-libbs2b --enable-libcaca --enable-libcdio --enable-libflite --enable-libfontconfig --enable-libfreetype --enable-libfribidi --enable-libgme --enable-libgsm --enable-libmp3lame --enable-libmysofa --enable-libopenjpeg --enable-libopenmpt --enable-libopus --enable-libpulse --enable-librubberband --enable-librsvg --enable-libshine --enable-libsnappy --enable-libsoxr --enable-libspeex --enable-libssh --enable-libtheora --enable-libtwolame --enable-libvorbis --enable-libvpx --enable-libwavpack --enable-libwebp --enable-libx265 --enable-libxml2 --enable-libxvid --enable-libzmq --enable-libzvbi --enable-omx --enable-openal --enable-opengl --enable-sdl2 --enable-libdc1394 --enable-libdrm --enable-libiec61883 --enable-chromaprint --enable-frei0r --enable-libopencv --enable-libx264 --enable-shared\n",
      "  libavutil      55. 78.100 / 55. 78.100\n",
      "  libavcodec     57.107.100 / 57.107.100\n",
      "  libavformat    57. 83.100 / 57. 83.100\n",
      "  libavdevice    57. 10.100 / 57. 10.100\n",
      "  libavfilter     6.107.100 /  6.107.100\n",
      "  libavresample   3.  7.  0 /  3.  7.  0\n",
      "  libswscale      4.  8.100 /  4.  8.100\n",
      "  libswresample   2.  9.100 /  2.  9.100\n",
      "  libpostproc    54.  7.100 / 54.  7.100\n",
      "Input #0, image2, from '_export_mp4/%08d.png':\n",
      "  Duration: 00:00:00.44, start: 0.000000, bitrate: N/A\n",
      "    Stream #0:0: Video: png, rgba64be(pc), 800x800, 25 fps, 25 tbr, 25 tbn, 25 tbc\n",
      "Stream mapping:\n",
      "  Stream #0:0 -> #0:0 (png (native) -> h264 (libx264))\n",
      "Press [q] to stop, [?] for help\n",
      "[libx264 @ 0x5565738bb920] using cpu capabilities: MMX2 SSE2Fast SSSE3 SSE4.2 AVX FMA3 BMI2 AVX2\n",
      "[libx264 @ 0x5565738bb920] profile High 4:4:4 Predictive, level 3.1, 4:4:4 8-bit\n",
      "[libx264 @ 0x5565738bb920] 264 - core 152 r2854 e9a5903 - H.264/MPEG-4 AVC codec - Copyleft 2003-2017 - http://www.videolan.org/x264.html - options: cabac=1 ref=3 deblock=1:0:0 analyse=0x1:0x111 me=hex subme=7 psy=1 psy_rd=1.00:0.00 mixed_ref=1 me_range=16 chroma_me=1 trellis=1 8x8dct=0 cqm=0 deadzone=21,11 fast_pskip=1 chroma_qp_offset=4 threads=25 lookahead_threads=4 sliced_threads=0 nr=0 decimate=1 interlaced=0 bluray_compat=0 constrained_intra=0 bframes=3 b_pyramid=2 b_adapt=1 b_bias=0 direct=1 weightb=1 open_gop=0 weightp=2 keyint=250 keyint_min=20 scenecut=40 intra_refresh=0 rc_lookahead=40 rc=crf mbtree=1 crf=23.0 qcomp=0.60 qpmin=0 qpmax=69 qpstep=4 ip_ratio=1.40 aq=1:1.00\n",
      "Output #0, mp4, to 'custom_routing_tendon/test2.mp4':\n",
      "  Metadata:\n",
      "    encoder         : Lavf57.83.100\n",
      "    Stream #0:0: Video: h264 (libx264) (avc1 / 0x31637661), yuv444p, 800x800, q=-1--1, 20 fps, 10240 tbn, 20 tbc\n",
      "    Metadata:\n",
      "      encoder         : Lavc57.107.100 libx264\n",
      "    Side data:\n",
      "      cpb: bitrate max/min/avg: 0/0/0 buffer size: 0 vbv_delay: -1\n",
      "frame=   11 fps=0.0 q=-1.0 Lsize=     321kB time=00:00:00.40 bitrate=6576.6kbits/s speed=1.71x    \n",
      "video:320kB audio:0kB subtitle:0kB other streams:0kB global headers:0kB muxing overhead: 0.294869%\n",
      "[libx264 @ 0x5565738bb920] frame I:1     Avg QP:24.16  size:299777\n",
      "[libx264 @ 0x5565738bb920] frame P:3     Avg QP:28.90  size:  5679\n",
      "[libx264 @ 0x5565738bb920] frame B:7     Avg QP:31.65  size:  1491\n",
      "[libx264 @ 0x5565738bb920] consecutive B-frames:  9.1% 18.2%  0.0% 72.7%\n",
      "[libx264 @ 0x5565738bb920] mb I  I16..4:  0.0%  0.0% 100.0%\n",
      "[libx264 @ 0x5565738bb920] mb P  I16..4:  0.0%  0.0%  0.2%  P16..4:  7.3%  0.5%  0.6%  0.0%  0.0%    skip:91.4%\n",
      "[libx264 @ 0x5565738bb920] mb B  I16..4:  0.0%  0.0%  0.0%  B16..8:  2.9%  0.5%  0.4%  direct: 1.1%  skip:95.1%  L0:37.6% L1:56.7% BI: 5.7%\n",
      "[libx264 @ 0x5565738bb920] coded y,u,v intra: 100.0% 55.6% 4.0% inter: 2.2% 0.2% 0.6%\n",
      "[libx264 @ 0x5565738bb920] i16 v,h,dc,p:  0%  0% 100%  0%\n",
      "[libx264 @ 0x5565738bb920] i4 v,h,dc,ddl,ddr,vr,hd,vl,hu:  4%  4% 31% 12% 11%  9% 13%  8%  8%\n",
      "[libx264 @ 0x5565738bb920] Weighted P-Frames: Y:0.0% UV:0.0%\n",
      "[libx264 @ 0x5565738bb920] ref P L0: 68.8% 15.2% 14.3%  1.6%\n",
      "[libx264 @ 0x5565738bb920] ref B L0: 94.9%  4.9%  0.3%\n",
      "[libx264 @ 0x5565738bb920] ref B L1: 98.7%  1.3%\n",
      "[libx264 @ 0x5565738bb920] kb/s:4760.04\n",
      "ffmpeg version 3.4.8-0ubuntu0.2 Copyright (c) 2000-2020 the FFmpeg developers\n",
      "  built with gcc 7 (Ubuntu 7.5.0-3ubuntu1~18.04)\n",
      "  configuration: --prefix=/usr --extra-version=0ubuntu0.2 --toolchain=hardened --libdir=/usr/lib/x86_64-linux-gnu --incdir=/usr/include/x86_64-linux-gnu --enable-gpl --disable-stripping --enable-avresample --enable-avisynth --enable-gnutls --enable-ladspa --enable-libass --enable-libbluray --enable-libbs2b --enable-libcaca --enable-libcdio --enable-libflite --enable-libfontconfig --enable-libfreetype --enable-libfribidi --enable-libgme --enable-libgsm --enable-libmp3lame --enable-libmysofa --enable-libopenjpeg --enable-libopenmpt --enable-libopus --enable-libpulse --enable-librubberband --enable-librsvg --enable-libshine --enable-libsnappy --enable-libsoxr --enable-libspeex --enable-libssh --enable-libtheora --enable-libtwolame --enable-libvorbis --enable-libvpx --enable-libwavpack --enable-libwebp --enable-libx265 --enable-libxml2 --enable-libxvid --enable-libzmq --enable-libzvbi --enable-omx --enable-openal --enable-opengl --enable-sdl2 --enable-libdc1394 --enable-libdrm --enable-libiec61883 --enable-chromaprint --enable-frei0r --enable-libopencv --enable-libx264 --enable-shared\n",
      "  libavutil      55. 78.100 / 55. 78.100\n",
      "  libavcodec     57.107.100 / 57.107.100\n",
      "  libavformat    57. 83.100 / 57. 83.100\n",
      "  libavdevice    57. 10.100 / 57. 10.100\n",
      "  libavfilter     6.107.100 /  6.107.100\n",
      "  libavresample   3.  7.  0 /  3.  7.  0\n",
      "  libswscale      4.  8.100 /  4.  8.100\n",
      "  libswresample   2.  9.100 /  2.  9.100\n",
      "  libpostproc    54.  7.100 / 54.  7.100\n",
      "Input #0, image2, from '_export_mp4/%08d.png':\n",
      "  Duration: 00:00:00.44, start: 0.000000, bitrate: N/A\n",
      "    Stream #0:0: Video: png, rgba64be(pc), 800x800, 25 fps, 25 tbr, 25 tbn, 25 tbc\n",
      "Stream mapping:\n",
      "  Stream #0:0 -> #0:0 (png (native) -> h264 (libx264))\n",
      "Press [q] to stop, [?] for help\n",
      "[libx264 @ 0x556a2094f920] using cpu capabilities: MMX2 SSE2Fast SSSE3 SSE4.2 AVX FMA3 BMI2 AVX2\n",
      "[libx264 @ 0x556a2094f920] profile High 4:4:4 Predictive, level 3.1, 4:4:4 8-bit\n",
      "[libx264 @ 0x556a2094f920] 264 - core 152 r2854 e9a5903 - H.264/MPEG-4 AVC codec - Copyleft 2003-2017 - http://www.videolan.org/x264.html - options: cabac=1 ref=3 deblock=1:0:0 analyse=0x1:0x111 me=hex subme=7 psy=1 psy_rd=1.00:0.00 mixed_ref=1 me_range=16 chroma_me=1 trellis=1 8x8dct=0 cqm=0 deadzone=21,11 fast_pskip=1 chroma_qp_offset=4 threads=25 lookahead_threads=4 sliced_threads=0 nr=0 decimate=1 interlaced=0 bluray_compat=0 constrained_intra=0 bframes=3 b_pyramid=2 b_adapt=1 b_bias=0 direct=1 weightb=1 open_gop=0 weightp=2 keyint=250 keyint_min=20 scenecut=40 intra_refresh=0 rc_lookahead=40 rc=crf mbtree=1 crf=23.0 qcomp=0.60 qpmin=0 qpmax=69 qpstep=4 ip_ratio=1.40 aq=1:1.00\n",
      "Output #0, mp4, to 'custom_routing_tendon/test3.mp4':\n",
      "  Metadata:\n",
      "    encoder         : Lavf57.83.100\n",
      "    Stream #0:0: Video: h264 (libx264) (avc1 / 0x31637661), yuv444p, 800x800, q=-1--1, 20 fps, 10240 tbn, 20 tbc\n",
      "    Metadata:\n",
      "      encoder         : Lavc57.107.100 libx264\n",
      "    Side data:\n",
      "      cpb: bitrate max/min/avg: 0/0/0 buffer size: 0 vbv_delay: -1\n",
      "frame=   11 fps=0.0 q=-1.0 Lsize=     312kB time=00:00:00.40 bitrate=6383.2kbits/s speed=1.76x    \n",
      "video:311kB audio:0kB subtitle:0kB other streams:0kB global headers:0kB muxing overhead: 0.303831%\n",
      "[libx264 @ 0x556a2094f920] frame I:1     Avg QP:24.14  size:300072\n",
      "[libx264 @ 0x556a2094f920] frame P:3     Avg QP:29.18  size:  3987\n",
      "[libx264 @ 0x556a2094f920] frame B:7     Avg QP:31.54  size:   792\n",
      "[libx264 @ 0x556a2094f920] consecutive B-frames:  9.1% 18.2%  0.0% 72.7%\n",
      "[libx264 @ 0x556a2094f920] mb I  I16..4:  0.0%  0.0% 100.0%\n",
      "[libx264 @ 0x556a2094f920] mb P  I16..4:  0.0%  0.0%  0.1%  P16..4:  6.6%  0.3%  0.3%  0.0%  0.0%    skip:92.6%\n",
      "[libx264 @ 0x556a2094f920] mb B  I16..4:  0.0%  0.0%  0.0%  B16..8:  2.6%  0.3%  0.1%  direct: 1.1%  skip:95.9%  L0:38.2% L1:59.0% BI: 2.8%\n",
      "[libx264 @ 0x556a2094f920] coded y,u,v intra: 100.0% 56.9% 3.7% inter: 1.5% 0.3% 0.3%\n",
      "[libx264 @ 0x556a2094f920] i4 v,h,dc,ddl,ddr,vr,hd,vl,hu:  4%  4% 31% 13% 11%  9% 13%  8%  8%\n",
      "[libx264 @ 0x556a2094f920] Weighted P-Frames: Y:0.0% UV:0.0%\n",
      "[libx264 @ 0x556a2094f920] ref P L0: 73.5%  9.9% 14.5%  2.0%\n",
      "[libx264 @ 0x556a2094f920] ref B L0: 95.1%  4.9%\n",
      "[libx264 @ 0x556a2094f920] ref B L1: 97.5%  2.5%\n",
      "[libx264 @ 0x556a2094f920] kb/s:4619.35\n"
     ]
    }
   ],
   "source": [
    "acts = [[10,0,0,0],[0,10,0,0],[0,0,10,0],[0,0,0,10]]\n",
    "for idx,singleact in enumerate(acts):\n",
    "    if True:\n",
    "        act = [ele for ele in singleact]\n",
    "        print(\"Acutation:\", act)\n",
    "        act = variable_to_act(act)\n",
    "        vis_folder = 'test' + str(idx)\n",
    "        loss, info = env.simulate(dt, frame_num, methods[0], opts[0], q0, v0, [act for _ in range(frame_num)], f0, require_grad=False, vis_folder=vis_folder)\n",
    "\n",
    "\n",
    "        vis_folder = 'test' +str(idx)\n",
    "        file_name = vis_folder +'.png'\n",
    "\n",
    "        i = 10\n",
    "        mesh_file = str(env._folder / vis_folder / '{:04d}.bin'.format(i))\n",
    "\n",
    "        if idx%2==0:\n",
    "            ## Back view\n",
    "            options = {\n",
    "                'file_name': file_name,\n",
    "                'light_map': 'uffizi-large.exr',\n",
    "                'max_depth': 2,\n",
    "                'camera_pos': (0.2, 1, .55),\n",
    "                'camera_lookat': (0, -.55, -.15),\n",
    "            }\n",
    "        else:\n",
    "            ## Side view\n",
    "            options = {\n",
    "                'file_name': file_name,\n",
    "                'light_map': 'uffizi-large.exr',\n",
    "                'max_depth': 2,\n",
    "                'camera_pos': (1, 0.3, .25),\n",
    "                'camera_lookat': (-0.1, 0, 0.15),\n",
    "            }\n",
    "            \n",
    "        renderer = PbrtRenderer(options)\n",
    "\n",
    "        mesh = HexMesh3d()\n",
    "        mesh.Initialize(mesh_file)\n",
    "        renderer.add_hex_mesh(mesh, render_voxel_edge=True, color=(.3, .7, .5), transforms=[\n",
    "            ('s', env._scale),\n",
    "        ])\n",
    "        renderer.add_tri_mesh(Path(root_path) / 'asset/mesh/curved_ground.obj',\n",
    "            texture_img='chkbd_24_0.7', transforms=[('s', 2)])\n",
    "\n",
    "        for element in env.act_maps()[idx]:\n",
    "            vertices = mesh.py_element(element)\n",
    "            out = np.zeros(8*3).reshape(8,3)\n",
    "            assert len(vertices) == 8\n",
    "            for id,vertice in enumerate(vertices):\n",
    "                out[id] = mesh.py_vertex(vertice)\n",
    "\n",
    "            marker = out.mean(0)\n",
    "            \n",
    "            renderer.add_shape_mesh({ 'name': 'sphere', 'center': marker, 'radius': env._dx*env._scale },\n",
    "                transforms=[('s', env._scale)], color=(0.1, 0.1, 0.9))\n",
    "\n",
    "\n",
    "        renderer.render()\n"
   ]
  }
 ],
 "metadata": {
  "interpreter": {
   "hash": "a3e9125627a855b33378498b98445c671570c47a9fb08d6d2b8344ec5d673d64"
  },
  "kernelspec": {
   "display_name": "Python 3.8.3 ('diff_pd')",
   "language": "python",
   "name": "python3"
  },
  "language_info": {
   "codemirror_mode": {
    "name": "ipython",
    "version": 3
   },
   "file_extension": ".py",
   "mimetype": "text/x-python",
   "name": "python",
   "nbconvert_exporter": "python",
   "pygments_lexer": "ipython3",
   "version": "3.8.3"
  },
  "orig_nbformat": 4
 },
 "nbformat": 4,
 "nbformat_minor": 2
}
